<?xml version="1.0" standalone="no"?>
<!DOCTYPE svg PUBLIC "-//W3C//DTD SVG 20010904//EN"
 "http://www.w3.org/TR/2001/REC-SVG-20010904/DTD/svg10.dtd">
<svg version="1.0" xmlns="http://www.w3.org/2000/svg"
 width="260.000000pt" height="260.000000pt" viewBox="0 0 260.000000 260.000000"
 preserveAspectRatio="xMidYMid meet">
<metadata>
Created by potrace 1.11, written by Peter Selinger 2001-2013
</metadata>
<g transform="translate(0.000000,260.000000) scale(0.100000,-0.100000)"
fill="#000000" stroke="none">
<path d="M1050 2175 c-169 -28 -303 -91 -383 -180 -61 -68 -116 -184 -131
-275 -3 -19 -8 -54 -12 -78 -4 -27 -13 -46 -23 -49 -46 -16 -159 -75 -183 -96
-24 -21 -28 -32 -28 -79 0 -108 49 -209 129 -266 29 -20 40 -36 45 -63 7 -42
35 -71 99 -99 30 -13 51 -31 57 -45 8 -22 33 -42 52 -43 4 -1 21 3 38 8 18 5
30 5 30 0 0 -5 14 -17 32 -26 37 -19 102 -14 126 10 14 14 14 17 -3 36 -14 15
-26 19 -46 15 -20 -5 -33 -1 -49 15 -18 18 -29 20 -75 15 l-53 -5 -12 34 c-9
28 -17 35 -47 41 -51 9 -83 45 -83 94 0 36 -3 40 -35 51 -37 12 -90 66 -107
109 -6 14 -17 50 -24 80 -12 52 -12 54 13 77 13 12 56 35 95 51 65 25 72 31
89 71 11 25 17 47 15 49 -7 7 64 201 91 249 31 55 118 136 181 168 108 55 192
71 372 71 182 0 237 -9 340 -58 89 -42 164 -120 219 -227 24 -47 55 -100 68
-118 32 -42 35 -63 18 -120 -21 -68 -20 -74 33 -129 52 -54 122 -137 135 -160
14 -23 -1 -61 -26 -69 -32 -10 -88 -14 -119 -8 -21 4 -28 11 -28 30 0 23 9 28
48 27 20 -1 14 25 -9 37 -48 26 -108 -34 -94 -93 11 -44 38 -59 94 -56 46 4
68 -4 40 -13 -7 -2 -7 -12 2 -31 17 -37 3 -49 -81 -72 -79 -21 -95 -32 -78
-52 13 -16 86 -12 146 8 44 14 61 1 44 -35 -8 -17 -8 -27 -1 -32 18 -11 27
-48 17 -76 -11 -31 -69 -58 -124 -58 -50 0 -132 -37 -181 -82 -50 -45 -134
-100 -186 -122 -40 -16 -46 -35 -22 -60 17 -17 29 -14 95 22 85 47 121 73 178
127 58 56 62 58 144 55 65 -2 115 24 149 79 35 54 36 87 5 125 -18 22 -23 37
-19 61 3 21 0 35 -11 44 -9 7 -16 21 -16 30 0 9 -9 33 -19 54 l-19 37 27 1
c14 1 31 2 36 4 6 1 16 3 23 3 23 3 62 54 62 82 0 20 -25 57 -87 131 -47 57
-92 109 -100 114 -10 8 -10 19 3 60 20 67 12 121 -25 160 -16 16 -52 76 -81
132 -39 78 -65 115 -107 153 -66 61 -190 122 -293 145 -95 21 -272 26 -370 10z"/>
<path d="M1028 1800 c-34 -10 -88 -42 -88 -52 0 -4 -13 -5 -30 -2 -71 15 -142
-23 -133 -70 6 -31 7 -31 39 -10 24 16 75 16 114 0 10 -4 39 12 79 44 68 54
89 58 123 18 33 -37 42 -89 25 -139 -17 -49 -12 -64 44 -142 16 -22 29 -46 29
-53 0 -20 -39 -43 -111 -64 -39 -12 -70 -27 -73 -37 -6 -14 -12 -11 -37 15
-56 57 -128 39 -180 -44 -75 -122 60 -356 207 -356 25 0 48 3 51 5 2 3 7 24
10 46 9 66 -35 115 -67 76 -10 -12 -10 -19 -2 -27 15 -15 16 -48 1 -48 -51 0
-148 96 -170 168 -22 74 47 171 100 142 43 -22 23 -68 -25 -62 -47 6 -49 -84
-3 -109 20 -11 25 0 20 51 -2 24 -2 24 18 6 12 -11 21 -27 21 -37 0 -23 44
-36 65 -19 11 9 12 17 4 32 -6 12 -13 48 -15 82 -1 33 -1 55 2 49 9 -20 56
-15 130 11 132 48 156 107 84 212 -45 66 -47 79 -23 129 16 33 16 36 -6 82
-29 62 -53 90 -86 103 -30 12 -78 12 -117 0z"/>
<path d="M1747 1616 c-58 -14 -127 -79 -127 -120 0 -38 20 -43 48 -10 13 16
33 39 43 52 21 25 58 30 55 7 -1 -8 -14 -28 -29 -43 -32 -34 -33 -43 -6 -68
21 -19 21 -18 42 11 12 16 23 47 24 70 4 49 10 68 22 61 14 -9 23 25 10 40
-13 16 -16 16 -82 0z"/>
<path d="M1068 881 c-31 -7 -29 -13 24 -57 91 -79 250 -100 443 -60 11 3 41 8
68 12 53 8 68 21 43 39 -18 14 -44 13 -146 -5 -36 -6 -99 -14 -140 -17 -66 -4
-82 -2 -130 20 -30 14 -68 37 -84 51 -30 27 -33 28 -78 17z"/>
<path d="M635 848 c-27 -17 -72 -45 -100 -62 -27 -18 -77 -43 -110 -56 -109
-43 -184 -88 -256 -155 -71 -66 -99 -103 -99 -130 0 -20 17 -35 40 -35 4 0 25
23 46 51 63 81 178 160 299 205 28 10 75 34 105 54 30 20 82 51 115 69 89 49
91 51 55 72 -38 23 -35 24 -95 -13z"/>
<path d="M2076 807 c-31 -23 -6 -53 51 -62 76 -11 239 -53 272 -70 17 -8 60
-36 96 -61 l65 -46 0 29 c0 81 -83 136 -268 181 -177 43 -194 45 -216 29z"/>
</g>
</svg>
